<?xml version="1.0" standalone="no"?>
<!DOCTYPE svg PUBLIC "-//W3C//DTD SVG 20010904//EN"
 "http://www.w3.org/TR/2001/REC-SVG-20010904/DTD/svg10.dtd">
<svg version="1.0" xmlns="http://www.w3.org/2000/svg"
 width="2125.000000pt" height="1748.000000pt" viewBox="0 0 2125.000000 1748.000000"
 preserveAspectRatio="xMidYMid meet">

<g transform="translate(0.000000,1748.000000) scale(0.100000,-0.100000)"
fill="#a42479" stroke="none">
<path d="M15420 14240 c-1399 -91 -2653 -665 -3620 -1656 -831 -852 -1358
-1936 -1515 -3114 -43 -320 -58 -799 -35 -1115 117 -1608 914 -3064 2205
-4028 540 -403 1182 -716 1840 -896 272 -75 630 -140 945 -171 175 -18 667
-24 855 -11 902 64 1726 321 2480 774 266 159 526 347 760 548 164 140 467
445 605 609 619 734 1028 1587 1209 2520 68 351 95 652 95 1050 -1 424 -33
748 -115 1135 -344 1633 -1424 3031 -2921 3781 -614 308 -1264 493 -1958 559
-200 19 -645 27 -830 15z m-30 -1414 c939 -118 1766 -521 2426 -1180 678 -678
1080 -1527 1186 -2501 17 -155 17 -663 0 -810 -69 -598 -241 -1137 -517 -1621
-321 -561 -801 -1070 -1337 -1417 -556 -360 -1154 -570 -1828 -643 -187 -20
-599 -23 -775 -5 -644 65 -1233 258 -1760 578 -481 292 -920 703 -1248 1171
-731 1041 -931 2392 -535 3612 215 664 606 1277 1113 1743 686 632 1517 1000
2450 1086 149 14 676 5 825 -13z"/>
<path d="M14620 12724 c-19 -2 -84 -9 -145 -15 -671 -67 -1373 -340 -1920
-746 -194 -144 -300 -236 -475 -412 -642 -644 -1026 -1447 -1137 -2371 -21
-178 -24 -656 -5 -830 91 -839 416 -1594 953 -2215 116 -134 359 -370 494
-480 619 -505 1360 -808 2160 -886 155 -15 575 -15 730 0 937 91 1788 489
2448 1146 614 610 1015 1405 1136 2250 60 418 53 882 -20 1285 -102 567 -345
1146 -672 1600 -200 279 -507 605 -757 804 -145 116 -388 281 -537 365 -346
196 -756 349 -1149 431 -276 57 -418 71 -759 75 -170 2 -326 1 -345 -1z m1131
-964 c544 -55 1064 -254 1499 -573 1173 -862 1570 -2436 945 -3745 -605 -1265
-1980 -1948 -3355 -1666 -452 93 -911 310 -1285 609 -132 105 -350 323 -459
460 -341 428 -552 913 -638 1465 -19 124 -22 186 -22 425 -1 181 4 313 12 375
53 377 147 682 308 1001 472 934 1393 1558 2439 1652 94 8 461 6 556 -3z"/>
<path d="M2110 11951 c-87 -27 -165 -95 -204 -180 l-21 -46 -5 -1375 -5 -1375
-32 -67 c-41 -88 -113 -160 -201 -201 l-67 -32 -369 -3 c-321 -2 -375 -1 -420
14 -109 35 -201 115 -253 223 l-28 56 -3 553 -3 552 -119 0 c-170 0 -250 -34
-320 -134 -57 -84 -59 -106 -50 -607 7 -379 11 -464 25 -514 75 -267 266 -482
509 -576 142 -55 187 -59 646 -59 460 0 508 4 645 59 245 99 424 298 501 558
20 70 27 118 31 236 5 131 8 147 22 141 68 -28 178 -56 261 -65 63 -7 264 -9
542 -7 417 4 448 6 523 26 137 38 302 128 374 206 l24 26 44 -40 c96 -89 247
-166 387 -198 108 -24 453 -23 561 2 309 71 544 292 637 598 21 70 22 92 26
522 l3 448 -124 -4 c-116 -4 -129 -6 -190 -36 -71 -35 -113 -78 -150 -152 -21
-43 -22 -56 -22 -315 0 -259 -1 -272 -24 -328 -14 -35 -44 -81 -76 -116 -93
-99 -219 -151 -370 -151 -196 0 -334 80 -412 238 l-38 76 -3 393 -3 393 -97 0
c-193 0 -295 -52 -368 -190 -17 -31 -20 -67 -24 -315 l-5 -280 -32 -67 c-38
-81 -104 -155 -171 -191 -98 -53 -134 -57 -539 -57 -237 0 -391 4 -425 11
-146 31 -271 146 -312 288 -14 48 -16 171 -16 1063 l0 1008 -117 -1 c-65 0
-129 -4 -143 -8z"/>
<path d="M6393 11943 c-57 -20 -138 -94 -171 -157 l-27 -51 -3 -1312 -2 -1313
245 0 245 0 0 1425 0 1425 -122 -1 c-82 0 -137 -6 -165 -16z"/>
<path d="M3469 11646 c-98 -26 -174 -91 -216 -186 -11 -24 -17 -78 -21 -177
l-4 -143 246 0 246 0 0 260 0 260 -102 -1 c-57 0 -124 -6 -149 -13z"/>
<path d="M4100 11646 c-62 -16 -112 -48 -159 -102 -59 -67 -71 -114 -71 -271
l0 -133 245 0 245 0 0 260 0 260 -107 -1 c-60 0 -128 -6 -153 -13z"/>
<path d="M7391 10679 c-88 -17 -173 -87 -215 -178 -20 -45 -21 -62 -27 -701
-5 -636 -6 -657 -27 -735 -43 -154 -104 -242 -230 -332 -41 -29 -70 -59 -78
-79 -11 -25 -14 -89 -14 -254 l0 -220 28 6 c115 26 159 41 247 84 250 121 451
364 527 635 22 80 23 84 26 933 l3 852 -98 -1 c-54 -1 -118 -5 -142 -10z"/>
<path d="M4470 8434 l0 -256 128 4 c102 3 136 8 173 25 64 29 125 87 157 147
24 47 27 63 30 194 l4 142 -246 0 -246 0 0 -256z"/>
<path d="M5100 8434 l0 -256 133 4 c109 4 140 8 177 26 74 36 117 78 152 149
31 63 33 73 36 200 l4 133 -251 0 -251 0 0 -256z"/>
<path d="M3790 7389 c-44 -18 -90 -59 -113 -102 l-22 -42 -3 -942 -2 -943 165
0 165 0 0 423 c0 533 6 567 105 655 84 74 208 78 259 9 21 -28 21 -39 24 -558
l3 -529 165 0 165 0 -3 578 c-4 657 0 629 -89 726 -65 71 -127 98 -240 104
-131 7 -226 -26 -334 -113 l-55 -45 0 395 0 395 -82 -1 c-46 0 -94 -5 -108
-10z"/>
<path d="M7445 7388 c-49 -18 -83 -47 -112 -96 l-28 -47 -3 -942 -3 -943 166
0 165 0 0 1020 0 1020 -77 -1 c-43 0 -91 -5 -108 -11z"/>
<path d="M124 7281 c-51 -23 -99 -81 -113 -137 -8 -29 -11 -319 -11 -913 l0
-871 170 0 170 0 2 423 3 422 80 -2 c108 -3 152 -22 220 -95 72 -77 138 -214
200 -413 25 -82 60 -192 76 -242 l31 -93 194 0 c107 0 194 4 194 8 0 31 -222
597 -277 707 -46 91 -136 184 -213 221 l-59 28 77 26 c93 32 144 63 199 123
77 84 113 186 113 322 -1 212 -87 357 -263 440 -115 55 -191 65 -490 65 -233
0 -266 -2 -303 -19z m602 -316 c93 -58 131 -182 94 -310 -10 -35 -28 -64 -64
-101 -68 -70 -117 -84 -288 -84 l-128 0 0 266 0 265 168 -3 c168 -3 169 -3
218 -33z"/>
<path d="M1704 7281 c-51 -23 -99 -81 -113 -137 -6 -23 -11 -75 -11 -113 l0
-71 165 0 165 0 0 170 0 170 -82 0 c-59 0 -95 -6 -124 -19z"/>
<path d="M4730 7145 l0 -155 235 0 235 0 0 -815 0 -815 170 0 170 0 0 815 0
815 235 0 235 0 0 69 c0 113 -38 187 -114 222 -38 17 -76 19 -603 19 l-563 0
0 -155z"/>
<path d="M2524 6752 c-119 -42 -202 -118 -259 -237 -58 -122 -70 -200 -70
-455 0 -200 3 -235 23 -315 63 -249 185 -369 397 -391 118 -12 242 40 315 131
l32 40 -4 -155 c-3 -135 -7 -160 -25 -196 -31 -59 -74 -91 -139 -104 -74 -16
-132 -4 -333 66 -85 30 -158 51 -162 47 -5 -5 -31 -62 -59 -128 -47 -109 -50
-120 -35 -131 26 -20 254 -101 363 -130 113 -31 263 -37 352 -15 142 35 262
116 309 210 56 109 55 90 59 964 l3 807 -86 0 c-117 0 -174 -30 -216 -113
l-20 -38 -47 49 c-71 73 -146 105 -257 109 -68 3 -102 -1 -141 -15z m333 -290
c42 -30 89 -128 104 -215 16 -95 7 -376 -15 -443 -34 -107 -86 -156 -174 -162
-115 -8 -184 46 -217 173 -36 137 -28 422 15 538 21 55 67 108 110 126 43 18
142 8 177 -17z"/>
<path d="M6349 6756 c-182 -51 -318 -205 -381 -432 -19 -68 -22 -105 -22 -269
-1 -167 2 -200 22 -275 32 -118 85 -213 158 -286 69 -67 174 -125 262 -143 84
-17 236 -13 329 9 80 19 280 93 296 109 7 7 -82 237 -99 260 -2 2 -53 -15
-113 -38 -138 -52 -200 -65 -271 -58 -91 8 -162 54 -201 129 -19 37 -51 196
-43 210 3 4 162 8 353 8 285 0 351 3 367 14 17 13 19 26 17 124 -4 232 -70
420 -182 524 -66 62 -117 90 -206 113 -71 18 -221 18 -286 1z m232 -269 c64
-43 94 -107 106 -224 l6 -63 -206 0 -206 0 5 33 c32 185 101 277 209 277 38 0
61 -6 86 -23z"/>
<path d="M1689 6737 c-29 -16 -54 -40 -74 -72 l-30 -48 -3 -629 -2 -628 165 0
165 0 0 700 0 700 -88 0 c-74 0 -96 -4 -133 -23z"/>
</g>
</svg>
