<?xml version="1.0" standalone="no"?>
<!DOCTYPE svg PUBLIC "-//W3C//DTD SVG 20010904//EN"
 "http://www.w3.org/TR/2001/REC-SVG-20010904/DTD/svg10.dtd">
<svg version="1.0" xmlns="http://www.w3.org/2000/svg"
 width="75.000000pt" height="74.000000pt" viewBox="0 0 75.000000 74.000000"
 preserveAspectRatio="xMidYMid meet">

<g transform="translate(0.000000,74.000000) scale(0.100000,-0.100000)"
fill="#e74011" stroke="none">
<path d="M129 719 c-28 -28 -21 -62 28 -140 26 -44 38 -74 41 -113 5 -67 -8
-77 -54 -39 -54 42 -83 55 -109 49 -31 -8 -38 -31 -20 -67 33 -62 106 -82 175
-47 36 18 50 34 70 75 19 40 30 53 47 53 26 0 79 43 88 71 15 46 -42 65 -88
29 l-25 -20 -7 32 c-12 55 -44 107 -75 123 -38 20 -46 19 -71 -6z"/>
<path d="M295 710 c-27 -30 -7 -47 32 -27 20 11 34 12 46 6 13 -8 17 -6 17 5
0 36 -67 47 -95 16z"/>
<path d="M485 581 c-66 -29 -117 -104 -101 -146 9 -24 51 -38 90 -31 21 4 54
24 85 52 l50 45 48 -27 c78 -44 109 -15 57 54 -51 66 -150 89 -229 53z"/>
<path d="M580 415 c-9 -10 -11 -33 -7 -69 5 -50 3 -55 -25 -79 -48 -42 -18
-62 47 -31 57 27 81 105 50 164 -17 33 -45 39 -65 15z"/>
<path d="M405 368 c-11 -6 -37 -27 -58 -47 l-38 -36 -39 23 c-42 24 -85 29
-96 11 -10 -17 46 -89 86 -110 39 -21 122 -25 167 -8 39 14 83 57 100 97 12
30 12 37 -2 58 -12 19 -24 24 -58 24 -23 0 -51 -6 -62 -12z"/>
<path d="M393 159 c-25 -16 -36 -18 -52 -10 -45 25 -55 4 -16 -34 16 -17 35
-25 58 -25 43 0 89 34 85 64 -4 28 -36 31 -75 5z"/>
</g>
</svg>
