<svg xmlns="http://www.w3.org/2000/svg" viewBox="0 0 372.51416 512.00011"><defs><style>.cls-1{fill:#ffda0a;}.cls-2{fill:#454545;}</style></defs><g id="Layer_2" data-name="Layer 2"><g id="Layer_1-2" data-name="Layer 1"><path class="cls-1" d="M372.51416,109.50514l-54.807-54.807L263.009,0,141.51824.10893C74.72556.10893,18.611.65374,16.86758,1.0896c-8.063,2.50608-15.25445,10.787-16.453,18.95906C.08773,22.4458-.13021,130.42554.08773,259.87042c.32686,216.72214.4358,235.57227,2.1792,238.62315a30.79277,30.79277,0,0,0,11.2229,11.2229c2.942,1.7434,17.10679,1.85234,168.88854,2.17921,122.47145.21793,167.14519,0,171.5036-.87167a23.23436,23.23436,0,0,0,16.99779-15.58132c1.41647-4.79428,1.6344-29.74616,1.6344-195.69281Z"/><path class="cls-1" d="M171.8805,512c45.43573,0,77.894.00763,101.2948-.10272H95.39045C116.82654,511.96393,142.37806,512,171.8805,512Z"/><path class="cls-2" d="M80.98612,216.53183a56.09454,56.09454,0,0,0-8,2.8c-3.8,2.1-10.8,9.3-12.8,13.3-3.7,7.3-3.8,12.7-3.5,114.5l.3,99.5,2.4,5.2c2.9,6.6,11.1,14.3,17.6,16.9,4.8,1.8,8.7,1.9,108,1.9h103l5.5-2.6a33.19078,33.19078,0,0,0,15.9-15.9l2.6-5.5v-207l-2.6-5.5a33.19078,33.19078,0,0,0-15.9-15.9l-5.5-2.6-101-.2C109.08612,215.33183,84.88612,215.53183,80.98612,216.53183Zm50.5,46.6v27h-54v-22.1c0-33-1.2-31.8,31.8-31.9h22.2Zm85,0v27h-64v-54h64Zm69.6-25.1c4.7,3.1,4.9,4.4,5.2,28.8l.3,23.3h-54.1v-54.1l23.3.3C278.58613,236.53183,284.48613,236.93183,286.08613,238.03183Zm5.2,138.8c-.3,71.1-.1,68.5-5.7,71.5-1.8,1-8.3,1.3-25,1.3h-22.6l-.5-34.2-.5-34.3-2.8-2.7-2.7-2.8-77-.3-77-.2v-64h214.1Zm-159.8,46.4v27l-23.2-.3c-17.9-.2-23.8-.6-25.4-1.7-4.7-3.1-4.9-4.4-5.2-28.9l-.3-23.2h54.1Zm85-.1v27h-64v-54h64Z"/></g></g></svg>