<svg version="1.2" xmlns="http://www.w3.org/2000/svg" viewBox="0 0 1080 1080" width="1080" height="1080">
	<title>158-GraFa</title>
	<style>
		.s0 { fill: #00194a } 
	</style>
	<g id="File">
		<path id="Shape 37 " fill-rule="evenodd" class="s0" d="m540 1080c-14.1 0-27.6-5.6-37.6-15.6l-97.6-97.6h101.5c20.9 0.1 41.1-8.3 55.8-23.1l247.2-247.3 1.1 135.2-232.8 232.8c-9.9 10-23.5 15.6-37.6 15.6zm397.4-142.6h-191.3l71.8-71.7c14.8-14.7 23.2-34.8 23.2-55.7v-349.8l96.3 94.8v382.5zm-412.4 0h-382.5v-191.2l71.8 71.7c14.8 14.7 34.8 23.1 55.7 23.1h349.9l-94.9 96.4zm-276.6-127l-232.8-232.8c-9.9-10-15.5-23.5-15.6-37.6 0-14.1 5.6-27.7 15.6-37.6l97.6-97.6v101.4c0 21 8.3 41.1 23.2 55.8l247.2 247.3zm291.7-22.5c-136.9 0-247.9-111-247.9-247.9 0-136.9 111-247.8 247.9-247.8 136.8 0 247.8 110.9 247.8 247.8-0.1 136.8-111 247.7-247.8 247.8zm426.8-112.7v-101.4c0-21-8.3-41.1-23.2-55.9l-247.2-247.2 135.2-1.1 232.8 232.8c20.7 20.8 20.8 54.5 0 75.2q0 0 0 0l-95.1 95.2-2.5 2.4zm-727.9-55.3l-96.3-94.9v-382.5h191.2l-71.8 71.9c-14.8 14.7-23.1 34.7-23.1 55.6zm31.7-236.2l-1.1-135.2 232.9-232.8c9.9-10 23.5-15.6 37.6-15.6 14.1 0 27.6 5.6 37.5 15.6l97.7 97.6h-101.5c-20.9-0.1-41 8.3-55.8 23.1l-247.2 247.3zm666.7-49.8l-71.7-71.7c-14.7-14.9-34.8-23.2-55.7-23.1h-349.8l94.8-96.4h382.5v191.2z"/>
	</g>
</svg>